<svg xmlns="http://www.w3.org/2000/svg" width="116" height="84" viewBox="0 0 116 84" shape-rendering="crispEdges" role="img" aria-label="Email"><title>Email</title><style>.bob { animation: bob 1.6s steps(1, end) 0s infinite; } .spark { animation: tw 1.6s steps(1, end) 0s infinite; }@keyframes bob { 0%,49% { transform: translateY(0); } 50%,100% { transform: translateY(-3px); } }@keyframes tw { 0%,29% { opacity: 0; } 30%,64% { opacity: 1; } 65%,100% { opacity: 0; } }@media (prefers-reduced-motion: reduce) { * { animation: none !important; } }</style><g><rect x="43" y="9" width="36" height="3" fill="#2c3138"/><rect x="40" y="12" width="3" height="3" fill="#2c3138"/><rect x="43" y="12" width="36" height="3" fill="#2c3138"/><rect x="79" y="12" width="3" height="3" fill="#2c3138"/><rect x="37" y="15" width="3" height="3" fill="#2c3138"/><rect x="40" y="15" width="42" height="3" fill="#2c3138"/><rect x="82" y="15" width="3" height="3" fill="#2c3138"/><rect x="37" y="18" width="3" height="3" fill="#2c3138"/><rect x="40" y="18" width="42" height="3" fill="#2c3138"/><rect x="82" y="18" width="3" height="3" fill="#2c3138"/><rect x="37" y="21" width="3" height="3" fill="#2c3138"/><rect x="40" y="21" width="42" height="3" fill="#2c3138"/><rect x="82" y="21" width="3" height="3" fill="#2c3138"/><rect x="37" y="24" width="3" height="3" fill="#2c3138"/><rect x="40" y="24" width="42" height="3" fill="#2c3138"/><rect x="82" y="24" width="3" height="3" fill="#2c3138"/><rect x="37" y="27" width="3" height="3" fill="#2c3138"/><rect x="40" y="27" width="42" height="3" fill="#2c3138"/><rect x="82" y="27" width="3" height="3" fill="#2c3138"/><rect x="37" y="30" width="3" height="3" fill="#2c3138"/><rect x="40" y="30" width="42" height="3" fill="#2c3138"/><rect x="82" y="30" width="3" height="3" fill="#2c3138"/><rect x="37" y="33" width="3" height="3" fill="#2c3138"/><rect x="40" y="33" width="42" height="3" fill="#2c3138"/><rect x="82" y="33" width="3" height="3" fill="#2c3138"/><rect x="37" y="36" width="3" height="3" fill="#2c3138"/><rect x="40" y="36" width="42" height="3" fill="#2c3138"/><rect x="82" y="36" width="3" height="3" fill="#2c3138"/><rect x="37" y="39" width="3" height="3" fill="#2c3138"/><rect x="40" y="39" width="42" height="3" fill="#2c3138"/><rect x="82" y="39" width="3" height="3" fill="#2c3138"/><rect x="37" y="42" width="3" height="3" fill="#2c3138"/><rect x="40" y="42" width="42" height="3" fill="#2c3138"/><rect x="82" y="42" width="3" height="3" fill="#2c3138"/><rect x="37" y="45" width="3" height="3" fill="#2c3138"/><rect x="40" y="45" width="42" height="3" fill="#2c3138"/><rect x="82" y="45" width="3" height="3" fill="#2c3138"/><rect x="37" y="48" width="3" height="3" fill="#2c3138"/><rect x="40" y="48" width="42" height="3" fill="#2c3138"/><rect x="82" y="48" width="3" height="3" fill="#2c3138"/><rect x="40" y="51" width="3" height="3" fill="#2c3138"/><rect x="43" y="51" width="36" height="3" fill="#2c3138"/><rect x="79" y="51" width="3" height="3" fill="#2c3138"/><rect x="43" y="54" width="36" height="3" fill="#2c3138"/></g><g class="bob"><rect x="40" y="6" width="36" height="3" fill="#e8eaed"/><rect x="37" y="9" width="3" height="3" fill="#e8eaed"/><rect x="40" y="9" width="36" height="3" fill="#ffb224"/><rect x="76" y="9" width="3" height="3" fill="#e8eaed"/><rect x="34" y="12" width="3" height="3" fill="#e8eaed"/><rect x="37" y="12" width="42" height="3" fill="#ffb224"/><rect x="79" y="12" width="3" height="3" fill="#e8eaed"/><rect x="34" y="15" width="3" height="3" fill="#e8eaed"/><rect x="37" y="15" width="42" height="3" fill="#ffb224"/><rect x="79" y="15" width="3" height="3" fill="#e8eaed"/><rect x="34" y="18" width="3" height="3" fill="#e8eaed"/><rect x="37" y="18" width="42" height="3" fill="#ffb224"/><rect x="79" y="18" width="3" height="3" fill="#e8eaed"/><rect x="34" y="21" width="3" height="3" fill="#e8eaed"/><rect x="37" y="21" width="42" height="3" fill="#ffb224"/><rect x="79" y="21" width="3" height="3" fill="#e8eaed"/><rect x="34" y="24" width="3" height="3" fill="#e8eaed"/><rect x="37" y="24" width="42" height="3" fill="#ffb224"/><rect x="79" y="24" width="3" height="3" fill="#e8eaed"/><rect x="34" y="27" width="3" height="3" fill="#e8eaed"/><rect x="37" y="27" width="42" height="3" fill="#ffb224"/><rect x="79" y="27" width="3" height="3" fill="#e8eaed"/><rect x="34" y="30" width="3" height="3" fill="#e8eaed"/><rect x="37" y="30" width="42" height="3" fill="#ffb224"/><rect x="79" y="30" width="3" height="3" fill="#e8eaed"/><rect x="34" y="33" width="3" height="3" fill="#e8eaed"/><rect x="37" y="33" width="42" height="3" fill="#ffb224"/><rect x="79" y="33" width="3" height="3" fill="#e8eaed"/><rect x="34" y="36" width="3" height="3" fill="#e8eaed"/><rect x="37" y="36" width="42" height="3" fill="#ffb224"/><rect x="79" y="36" width="3" height="3" fill="#e8eaed"/><rect x="34" y="39" width="3" height="3" fill="#e8eaed"/><rect x="37" y="39" width="42" height="3" fill="#ffb224"/><rect x="79" y="39" width="3" height="3" fill="#e8eaed"/><rect x="34" y="42" width="3" height="3" fill="#e8eaed"/><rect x="37" y="42" width="42" height="3" fill="#ffb224"/><rect x="79" y="42" width="3" height="3" fill="#e8eaed"/><rect x="34" y="45" width="3" height="3" fill="#e8eaed"/><rect x="37" y="45" width="42" height="3" fill="#ffb224"/><rect x="79" y="45" width="3" height="3" fill="#e8eaed"/><rect x="37" y="48" width="3" height="3" fill="#e8eaed"/><rect x="40" y="48" width="36" height="3" fill="#ffb224"/><rect x="76" y="48" width="3" height="3" fill="#e8eaed"/><rect x="40" y="51" width="36" height="3" fill="#e8eaed"/><rect x="40" y="18" width="36" height="3" fill="#e8eaed"/><rect x="40" y="21" width="6" height="3" fill="#e8eaed"/><rect x="70" y="21" width="6" height="3" fill="#e8eaed"/><rect x="40" y="24" width="3" height="3" fill="#e8eaed"/><rect x="46" y="24" width="6" height="3" fill="#e8eaed"/><rect x="64" y="24" width="6" height="3" fill="#e8eaed"/><rect x="73" y="24" width="3" height="3" fill="#e8eaed"/><rect x="40" y="27" width="3" height="3" fill="#e8eaed"/><rect x="49" y="27" width="6" height="3" fill="#e8eaed"/><rect x="61" y="27" width="6" height="3" fill="#e8eaed"/><rect x="73" y="27" width="3" height="3" fill="#e8eaed"/><rect x="40" y="30" width="3" height="3" fill="#e8eaed"/><rect x="52" y="30" width="12" height="3" fill="#e8eaed"/><rect x="73" y="30" width="3" height="3" fill="#e8eaed"/><rect x="40" y="33" width="3" height="3" fill="#e8eaed"/><rect x="73" y="33" width="3" height="3" fill="#e8eaed"/><rect x="40" y="36" width="3" height="3" fill="#e8eaed"/><rect x="73" y="36" width="3" height="3" fill="#e8eaed"/><rect x="40" y="39" width="36" height="3" fill="#e8eaed"/></g><g class="spark"><rect x="88" y="0" width="2" height="2" fill="#7cd4f5"/><rect x="88" y="2" width="2" height="2" fill="#7cd4f5"/><rect x="84" y="4" width="10" height="2" fill="#7cd4f5"/><rect x="88" y="6" width="2" height="2" fill="#7cd4f5"/><rect x="88" y="8" width="2" height="2" fill="#7cd4f5"/></g><path fill="#e8eaed" d="M33 66h2v2h-2zM79 66h2v2h-2zM33 64h10v2h-10zM71 64h2v2h-2zM77 64h4v2h-4zM33 72h2v2h-2zM45 72h2v2h-2zM49 72h2v2h-2zM53 72h2v2h-2zM59 72h8v2h-8zM71 72h2v2h-2zM79 72h2v2h-2zM33 70h8v2h-8zM45 70h2v2h-2zM49 70h2v2h-2zM53 70h2v2h-2zM65 70h2v2h-2zM71 70h2v2h-2zM79 70h2v2h-2zM33 76h10v2h-10zM45 76h2v2h-2zM49 76h2v2h-2zM53 76h2v2h-2zM59 76h8v2h-8zM69 76h6v2h-6zM77 76h6v2h-6zM33 68h2v2h-2zM45 68h4v2h-4zM51 68h2v2h-2zM59 68h6v2h-6zM69 68h4v2h-4zM79 68h2v2h-2zM33 74h2v2h-2zM45 74h2v2h-2zM49 74h2v2h-2zM53 74h2v2h-2zM57 74h2v2h-2zM65 74h2v2h-2zM71 74h2v2h-2zM79 74h2v2h-2z"/></svg>