<svg xmlns="http://www.w3.org/2000/svg" width="420" height="76" viewBox="0 0 420 76" shape-rendering="crispEdges" role="img" aria-label="thiscooking.site"><title>thiscooking.site</title><style>.arr { animation: nudge 1s steps(1, end) infinite; }@keyframes nudge { 0%,49% { transform: translateX(0); } 50%,100% { transform: translateX(6px); } }@media (prefers-reduced-motion: reduce) { * { animation: none !important; } }</style><g><rect x="10" y="8" width="400" height="64" fill="#8d9296"/><rect x="6" y="12" width="408" height="56" fill="#8d9296"/><rect x="14" y="12" width="392" height="56" fill="#8d9296"/><rect x="10" y="16" width="400" height="48" fill="#8d9296"/></g><g><rect x="4" y="0" width="400" height="64" fill="#0d1012"/><rect x="0" y="4" width="408" height="56" fill="#0d1012"/><rect x="8" y="4" width="392" height="56" fill="#dcdee0"/><rect x="4" y="8" width="400" height="48" fill="#dcdee0"/><rect x="18" y="16" width="24" height="2" fill="#0d1012"/><rect x="16" y="18" width="2" height="2" fill="#0d1012"/><rect x="18" y="18" width="24" height="2" fill="#f9d630"/><rect x="42" y="18" width="2" height="2" fill="#0d1012"/><rect x="14" y="20" width="2" height="2" fill="#0d1012"/><rect x="16" y="20" width="28" height="2" fill="#f9d630"/><rect x="44" y="20" width="2" height="2" fill="#0d1012"/><rect x="14" y="22" width="2" height="2" fill="#0d1012"/><rect x="16" y="22" width="28" height="2" fill="#f9d630"/><rect x="44" y="22" width="2" height="2" fill="#0d1012"/><rect x="14" y="24" width="2" height="2" fill="#0d1012"/><rect x="16" y="24" width="28" height="2" fill="#f9d630"/><rect x="44" y="24" width="2" height="2" fill="#0d1012"/><rect x="14" y="26" width="2" height="2" fill="#0d1012"/><rect x="16" y="26" width="28" height="2" fill="#f9d630"/><rect x="44" y="26" width="2" height="2" fill="#0d1012"/><rect x="14" y="28" width="2" height="2" fill="#0d1012"/><rect x="16" y="28" width="28" height="2" fill="#f9d630"/><rect x="44" y="28" width="2" height="2" fill="#0d1012"/><rect x="14" y="30" width="2" height="2" fill="#0d1012"/><rect x="16" y="30" width="28" height="2" fill="#f9d630"/><rect x="44" y="30" width="2" height="2" fill="#0d1012"/><rect x="14" y="32" width="2" height="2" fill="#0d1012"/><rect x="16" y="32" width="28" height="2" fill="#f9d630"/><rect x="44" y="32" width="2" height="2" fill="#0d1012"/><rect x="14" y="34" width="2" height="2" fill="#0d1012"/><rect x="16" y="34" width="28" height="2" fill="#f9d630"/><rect x="44" y="34" width="2" height="2" fill="#0d1012"/><rect x="14" y="36" width="2" height="2" fill="#0d1012"/><rect x="16" y="36" width="28" height="2" fill="#f9d630"/><rect x="44" y="36" width="2" height="2" fill="#0d1012"/><rect x="14" y="38" width="2" height="2" fill="#0d1012"/><rect x="16" y="38" width="28" height="2" fill="#f9d630"/><rect x="44" y="38" width="2" height="2" fill="#0d1012"/><rect x="14" y="40" width="2" height="2" fill="#0d1012"/><rect x="16" y="40" width="28" height="2" fill="#f9d630"/><rect x="44" y="40" width="2" height="2" fill="#0d1012"/><rect x="14" y="42" width="2" height="2" fill="#0d1012"/><rect x="16" y="42" width="28" height="2" fill="#f9d630"/><rect x="44" y="42" width="2" height="2" fill="#0d1012"/><rect x="16" y="44" width="2" height="2" fill="#0d1012"/><rect x="18" y="44" width="24" height="2" fill="#f9d630"/><rect x="42" y="44" width="2" height="2" fill="#0d1012"/><rect x="18" y="46" width="24" height="2" fill="#0d1012"/><rect x="24" y="23" width="12" height="2" fill="#0d1012"/><rect x="22" y="25" width="2" height="2" fill="#0d1012"/><rect x="28" y="25" width="4" height="2" fill="#0d1012"/><rect x="36" y="25" width="2" height="2" fill="#0d1012"/><rect x="20" y="27" width="2" height="2" fill="#0d1012"/><rect x="28" y="27" width="4" height="2" fill="#0d1012"/><rect x="38" y="27" width="2" height="2" fill="#0d1012"/><rect x="20" y="29" width="2" height="2" fill="#0d1012"/><rect x="28" y="29" width="4" height="2" fill="#0d1012"/><rect x="38" y="29" width="2" height="2" fill="#0d1012"/><rect x="18" y="31" width="24" height="2" fill="#0d1012"/><rect x="20" y="33" width="2" height="2" fill="#0d1012"/><rect x="28" y="33" width="4" height="2" fill="#0d1012"/><rect x="38" y="33" width="2" height="2" fill="#0d1012"/><rect x="20" y="35" width="2" height="2" fill="#0d1012"/><rect x="28" y="35" width="4" height="2" fill="#0d1012"/><rect x="38" y="35" width="2" height="2" fill="#0d1012"/><rect x="22" y="37" width="2" height="2" fill="#0d1012"/><rect x="28" y="37" width="4" height="2" fill="#0d1012"/><rect x="36" y="37" width="2" height="2" fill="#0d1012"/><rect x="24" y="39" width="12" height="2" fill="#0d1012"/><rect x="64" y="22" width="15" height="3" fill="#0d1012"/><rect x="82" y="22" width="3" height="3" fill="#0d1012"/><rect x="94" y="22" width="3" height="3" fill="#0d1012"/><rect x="103" y="22" width="9" height="3" fill="#0d1012"/><rect x="121" y="22" width="12" height="3" fill="#0d1012"/><rect x="139" y="22" width="9" height="3" fill="#0d1012"/><rect x="157" y="22" width="9" height="3" fill="#0d1012"/><rect x="175" y="22" width="9" height="3" fill="#0d1012"/><rect x="190" y="22" width="3" height="3" fill="#0d1012"/><rect x="202" y="22" width="3" height="3" fill="#0d1012"/><rect x="211" y="22" width="9" height="3" fill="#0d1012"/><rect x="226" y="22" width="3" height="3" fill="#0d1012"/><rect x="238" y="22" width="3" height="3" fill="#0d1012"/><rect x="247" y="22" width="9" height="3" fill="#0d1012"/><rect x="283" y="22" width="12" height="3" fill="#0d1012"/><rect x="301" y="22" width="9" height="3" fill="#0d1012"/><rect x="316" y="22" width="15" height="3" fill="#0d1012"/><rect x="334" y="22" width="15" height="3" fill="#0d1012"/><rect x="70" y="25" width="3" height="3" fill="#0d1012"/><rect x="82" y="25" width="3" height="3" fill="#0d1012"/><rect x="94" y="25" width="3" height="3" fill="#0d1012"/><rect x="106" y="25" width="3" height="3" fill="#0d1012"/><rect x="118" y="25" width="3" height="3" fill="#0d1012"/><rect x="136" y="25" width="3" height="3" fill="#0d1012"/><rect x="148" y="25" width="3" height="3" fill="#0d1012"/><rect x="154" y="25" width="3" height="3" fill="#0d1012"/><rect x="166" y="25" width="3" height="3" fill="#0d1012"/><rect x="172" y="25" width="3" height="3" fill="#0d1012"/><rect x="184" y="25" width="3" height="3" fill="#0d1012"/><rect x="190" y="25" width="3" height="3" fill="#0d1012"/><rect x="199" y="25" width="3" height="3" fill="#0d1012"/><rect x="214" y="25" width="3" height="3" fill="#0d1012"/><rect x="226" y="25" width="6" height="3" fill="#0d1012"/><rect x="238" y="25" width="3" height="3" fill="#0d1012"/><rect x="244" y="25" width="3" height="3" fill="#0d1012"/><rect x="256" y="25" width="3" height="3" fill="#0d1012"/><rect x="280" y="25" width="3" height="3" fill="#0d1012"/><rect x="304" y="25" width="3" height="3" fill="#0d1012"/><rect x="322" y="25" width="3" height="3" fill="#0d1012"/><rect x="334" y="25" width="3" height="3" fill="#0d1012"/><rect x="70" y="28" width="3" height="3" fill="#0d1012"/><rect x="82" y="28" width="3" height="3" fill="#0d1012"/><rect x="94" y="28" width="3" height="3" fill="#0d1012"/><rect x="106" y="28" width="3" height="3" fill="#0d1012"/><rect x="118" y="28" width="3" height="3" fill="#0d1012"/><rect x="136" y="28" width="3" height="3" fill="#0d1012"/><rect x="154" y="28" width="3" height="3" fill="#0d1012"/><rect x="166" y="28" width="3" height="3" fill="#0d1012"/><rect x="172" y="28" width="3" height="3" fill="#0d1012"/><rect x="184" y="28" width="3" height="3" fill="#0d1012"/><rect x="190" y="28" width="3" height="3" fill="#0d1012"/><rect x="196" y="28" width="3" height="3" fill="#0d1012"/><rect x="214" y="28" width="3" height="3" fill="#0d1012"/><rect x="226" y="28" width="3" height="3" fill="#0d1012"/><rect x="232" y="28" width="3" height="3" fill="#0d1012"/><rect x="238" y="28" width="3" height="3" fill="#0d1012"/><rect x="244" y="28" width="3" height="3" fill="#0d1012"/><rect x="280" y="28" width="3" height="3" fill="#0d1012"/><rect x="304" y="28" width="3" height="3" fill="#0d1012"/><rect x="322" y="28" width="3" height="3" fill="#0d1012"/><rect x="334" y="28" width="3" height="3" fill="#0d1012"/><rect x="70" y="31" width="3" height="3" fill="#0d1012"/><rect x="82" y="31" width="15" height="3" fill="#0d1012"/><rect x="106" y="31" width="3" height="3" fill="#0d1012"/><rect x="121" y="31" width="9" height="3" fill="#0d1012"/><rect x="136" y="31" width="3" height="3" fill="#0d1012"/><rect x="154" y="31" width="3" height="3" fill="#0d1012"/><rect x="166" y="31" width="3" height="3" fill="#0d1012"/><rect x="172" y="31" width="3" height="3" fill="#0d1012"/><rect x="184" y="31" width="3" height="3" fill="#0d1012"/><rect x="190" y="31" width="6" height="3" fill="#0d1012"/><rect x="214" y="31" width="3" height="3" fill="#0d1012"/><rect x="226" y="31" width="3" height="3" fill="#0d1012"/><rect x="235" y="31" width="6" height="3" fill="#0d1012"/><rect x="244" y="31" width="3" height="3" fill="#0d1012"/><rect x="250" y="31" width="9" height="3" fill="#0d1012"/><rect x="283" y="31" width="9" height="3" fill="#0d1012"/><rect x="304" y="31" width="3" height="3" fill="#0d1012"/><rect x="322" y="31" width="3" height="3" fill="#0d1012"/><rect x="334" y="31" width="12" height="3" fill="#0d1012"/><rect x="70" y="34" width="3" height="3" fill="#0d1012"/><rect x="82" y="34" width="3" height="3" fill="#0d1012"/><rect x="94" y="34" width="3" height="3" fill="#0d1012"/><rect x="106" y="34" width="3" height="3" fill="#0d1012"/><rect x="130" y="34" width="3" height="3" fill="#0d1012"/><rect x="136" y="34" width="3" height="3" fill="#0d1012"/><rect x="154" y="34" width="3" height="3" fill="#0d1012"/><rect x="166" y="34" width="3" height="3" fill="#0d1012"/><rect x="172" y="34" width="3" height="3" fill="#0d1012"/><rect x="184" y="34" width="3" height="3" fill="#0d1012"/><rect x="190" y="34" width="3" height="3" fill="#0d1012"/><rect x="196" y="34" width="3" height="3" fill="#0d1012"/><rect x="214" y="34" width="3" height="3" fill="#0d1012"/><rect x="226" y="34" width="3" height="3" fill="#0d1012"/><rect x="238" y="34" width="3" height="3" fill="#0d1012"/><rect x="244" y="34" width="3" height="3" fill="#0d1012"/><rect x="256" y="34" width="3" height="3" fill="#0d1012"/><rect x="292" y="34" width="3" height="3" fill="#0d1012"/><rect x="304" y="34" width="3" height="3" fill="#0d1012"/><rect x="322" y="34" width="3" height="3" fill="#0d1012"/><rect x="334" y="34" width="3" height="3" fill="#0d1012"/><rect x="70" y="37" width="3" height="3" fill="#0d1012"/><rect x="82" y="37" width="3" height="3" fill="#0d1012"/><rect x="94" y="37" width="3" height="3" fill="#0d1012"/><rect x="106" y="37" width="3" height="3" fill="#0d1012"/><rect x="130" y="37" width="3" height="3" fill="#0d1012"/><rect x="136" y="37" width="3" height="3" fill="#0d1012"/><rect x="148" y="37" width="3" height="3" fill="#0d1012"/><rect x="154" y="37" width="3" height="3" fill="#0d1012"/><rect x="166" y="37" width="3" height="3" fill="#0d1012"/><rect x="172" y="37" width="3" height="3" fill="#0d1012"/><rect x="184" y="37" width="3" height="3" fill="#0d1012"/><rect x="190" y="37" width="3" height="3" fill="#0d1012"/><rect x="199" y="37" width="3" height="3" fill="#0d1012"/><rect x="214" y="37" width="3" height="3" fill="#0d1012"/><rect x="226" y="37" width="3" height="3" fill="#0d1012"/><rect x="238" y="37" width="3" height="3" fill="#0d1012"/><rect x="244" y="37" width="3" height="3" fill="#0d1012"/><rect x="256" y="37" width="3" height="3" fill="#0d1012"/><rect x="265" y="37" width="6" height="3" fill="#0d1012"/><rect x="292" y="37" width="3" height="3" fill="#0d1012"/><rect x="304" y="37" width="3" height="3" fill="#0d1012"/><rect x="322" y="37" width="3" height="3" fill="#0d1012"/><rect x="334" y="37" width="3" height="3" fill="#0d1012"/><rect x="70" y="40" width="3" height="3" fill="#0d1012"/><rect x="82" y="40" width="3" height="3" fill="#0d1012"/><rect x="94" y="40" width="3" height="3" fill="#0d1012"/><rect x="103" y="40" width="9" height="3" fill="#0d1012"/><rect x="118" y="40" width="12" height="3" fill="#0d1012"/><rect x="139" y="40" width="9" height="3" fill="#0d1012"/><rect x="157" y="40" width="9" height="3" fill="#0d1012"/><rect x="175" y="40" width="9" height="3" fill="#0d1012"/><rect x="190" y="40" width="3" height="3" fill="#0d1012"/><rect x="202" y="40" width="3" height="3" fill="#0d1012"/><rect x="211" y="40" width="9" height="3" fill="#0d1012"/><rect x="226" y="40" width="3" height="3" fill="#0d1012"/><rect x="238" y="40" width="3" height="3" fill="#0d1012"/><rect x="247" y="40" width="12" height="3" fill="#0d1012"/><rect x="265" y="40" width="6" height="3" fill="#0d1012"/><rect x="280" y="40" width="12" height="3" fill="#0d1012"/><rect x="301" y="40" width="9" height="3" fill="#0d1012"/><rect x="322" y="40" width="3" height="3" fill="#0d1012"/><rect x="334" y="40" width="15" height="3" fill="#0d1012"/></g><g class="arr"><rect x="363" y="22" width="3" height="3" fill="#7d2600"/><rect x="366" y="25" width="3" height="3" fill="#7d2600"/><rect x="369" y="28" width="3" height="3" fill="#7d2600"/><rect x="372" y="31" width="3" height="3" fill="#7d2600"/><rect x="369" y="34" width="3" height="3" fill="#7d2600"/><rect x="366" y="37" width="3" height="3" fill="#7d2600"/><rect x="363" y="40" width="3" height="3" fill="#7d2600"/></g></svg>