<svg xmlns="http://www.w3.org/2000/svg" width="1000" height="150" viewBox="0 0 1000 150" shape-rendering="crispEdges" role="img" aria-label="Pixel scene: a hooded figure walks along and unlocks padlocks"><title>Pixel scene: a hooded figure walks along and unlocks padlocks</title><style>.walk { animation: walk 14s linear infinite; }.fa { animation: fa .6s steps(1, end) infinite; } .fb { animation: fb .6s steps(1, end) infinite; }@keyframes fa { 0%,49% { opacity: 1; } 50%,100% { opacity: 0; } }@keyframes fb { 0%,49% { opacity: 0; } 50%,100% { opacity: 1; } }@keyframes walk { from { transform: translateX(-60px); } to { transform: translateX(1050px); } }.cloud { animation: drift 40s linear infinite; } .cloud2 { animation-duration: 55s; animation-delay: -20s; }@keyframes drift { from { transform: translateX(-160px); } to { transform: translateX(1060px); } }.st { animation: tw 2.4s steps(1, end) infinite; } .s2 { animation-delay: .8s; } .s3 { animation-delay: 1.6s; }@keyframes tw { 0%,60% { opacity: 1; } 61%,100% { opacity: .15; } }@media (prefers-reduced-motion: reduce) { .walk { transform: translateX(470px); } .fa { opacity: 1; } .fb { opacity: 0; } .cloud { transform: translateX(200px); } .cloud2 { transform: translateX(700px); } .open, .pop { opacity: 0; } }@keyframes ca { 0%,25.77% { opacity: 1; } 26.17%,100% { opacity: 0; } }@keyframes oa { 0%,25.77% { opacity: 0; } 26.17%,100% { opacity: 1; } }@keyframes pa { 0%,25.77% { opacity: 0; } 26.17%,30.77% { opacity: 1; } 31.17%,100% { opacity: 0; } }.ca { animation: ca 14s linear infinite; } .oa { animation: oa 14s linear infinite; } .pa { animation: pa 14s linear infinite; }@keyframes cb { 0%,53.69% { opacity: 1; } 54.09%,100% { opacity: 0; } }@keyframes ob { 0%,53.69% { opacity: 0; } 54.09%,100% { opacity: 1; } }@keyframes pb { 0%,53.69% { opacity: 0; } 54.09%,58.69% { opacity: 1; } 59.09%,100% { opacity: 0; } }.cb { animation: cb 14s linear infinite; } .ob { animation: ob 14s linear infinite; } .pb { animation: pb 14s linear infinite; }@keyframes cc { 0%,80.72% { opacity: 1; } 81.12%,100% { opacity: 0; } }@keyframes oc { 0%,80.72% { opacity: 0; } 81.12%,100% { opacity: 1; } }@keyframes pc { 0%,80.72% { opacity: 0; } 81.12%,85.72% { opacity: 1; } 86.12%,100% { opacity: 0; } }.cc { animation: cc 14s linear infinite; } .oc { animation: oc 14s linear infinite; } .pc { animation: pc 14s linear infinite; }@media (prefers-reduced-motion: reduce) { * { animation: none !important; } }</style><rect width="1000" height="150" rx="12" fill="#c8cbcd"/><rect x="0.5" y="0.5" width="999" height="149" rx="11.5" fill="none" stroke="#8d9296" shape-rendering="geometricPrecision"/><g class="st s1" transform="translate(70 26)"><rect x="4" y="0" width="2" height="2" fill="#3d4348"/><rect x="4" y="2" width="2" height="2" fill="#3d4348"/><rect x="0" y="4" width="10" height="2" fill="#3d4348"/><rect x="4" y="6" width="2" height="2" fill="#3d4348"/><rect x="4" y="8" width="2" height="2" fill="#3d4348"/></g><g class="st s2" transform="translate(180 54)"><rect width="4" height="4" fill="#3d4348"/></g><g class="st s3" transform="translate(330 22)"><rect x="4" y="0" width="2" height="2" fill="#3d4348"/><rect x="4" y="2" width="2" height="2" fill="#3d4348"/><rect x="0" y="4" width="10" height="2" fill="#3d4348"/><rect x="4" y="6" width="2" height="2" fill="#3d4348"/><rect x="4" y="8" width="2" height="2" fill="#3d4348"/></g><g class="st s1" transform="translate(470 60)"><rect width="4" height="4" fill="#3d4348"/></g><g class="st s2" transform="translate(640 30)"><rect x="4" y="0" width="2" height="2" fill="#3d4348"/><rect x="4" y="2" width="2" height="2" fill="#3d4348"/><rect x="0" y="4" width="10" height="2" fill="#3d4348"/><rect x="4" y="6" width="2" height="2" fill="#3d4348"/><rect x="4" y="8" width="2" height="2" fill="#3d4348"/></g><g class="st s3" transform="translate(760 52)"><rect width="4" height="4" fill="#3d4348"/></g><g class="st s1" transform="translate(910 24)"><rect x="4" y="0" width="2" height="2" fill="#3d4348"/><rect x="4" y="2" width="2" height="2" fill="#3d4348"/><rect x="0" y="4" width="10" height="2" fill="#3d4348"/><rect x="4" y="6" width="2" height="2" fill="#3d4348"/><rect x="4" y="8" width="2" height="2" fill="#3d4348"/></g><g class="st s2" transform="translate(980 70)"><rect width="4" height="4" fill="#3d4348"/></g><g class="cloud" transform="translate(0 30)"><g><rect x="30" y="0" width="24" height="6" fill="#b5b8ba"/><rect x="12" y="6" width="54" height="6" fill="#b5b8ba"/><rect x="6" y="12" width="72" height="6" fill="#b5b8ba"/><rect x="0" y="18" width="84" height="6" fill="#b5b8ba"/></g></g><g class="cloud cloud2" transform="translate(0 62)"><g><rect x="30" y="0" width="24" height="6" fill="#b5b8ba"/><rect x="12" y="6" width="54" height="6" fill="#b5b8ba"/><rect x="6" y="12" width="72" height="6" fill="#b5b8ba"/><rect x="0" y="18" width="84" height="6" fill="#b5b8ba"/></g></g><defs><pattern id="g" width="16" height="8" patternUnits="userSpaceOnUse"><rect width="8" height="8" fill="#8d9296"/></pattern></defs><rect x="0" y="118" width="1000" height="4" fill="#0d1012"/><rect x="0" y="126" width="1000" height="8" fill="url(#g)"/><g transform="translate(234 78)"><g class="ca"><rect x="8" y="0" width="16" height="4" fill="#0d1012"/><rect x="4" y="4" width="8" height="4" fill="#0d1012"/><rect x="20" y="4" width="8" height="4" fill="#0d1012"/><rect x="4" y="8" width="4" height="4" fill="#0d1012"/><rect x="24" y="8" width="4" height="4" fill="#0d1012"/><rect x="4" y="12" width="4" height="4" fill="#0d1012"/><rect x="24" y="12" width="4" height="4" fill="#0d1012"/><rect x="0" y="16" width="32" height="4" fill="#0d1012"/><rect x="0" y="20" width="4" height="4" fill="#0d1012"/><rect x="4" y="20" width="24" height="4" fill="#f9d630"/><rect x="28" y="20" width="4" height="4" fill="#0d1012"/><rect x="0" y="24" width="4" height="4" fill="#0d1012"/><rect x="4" y="24" width="12" height="4" fill="#f9d630"/><rect x="16" y="24" width="4" height="4" fill="#0d1012"/><rect x="20" y="24" width="8" height="4" fill="#f9d630"/><rect x="28" y="24" width="4" height="4" fill="#0d1012"/><rect x="0" y="28" width="4" height="4" fill="#0d1012"/><rect x="4" y="28" width="12" height="4" fill="#f9d630"/><rect x="16" y="28" width="4" height="4" fill="#0d1012"/><rect x="20" y="28" width="8" height="4" fill="#f9d630"/><rect x="28" y="28" width="4" height="4" fill="#0d1012"/><rect x="0" y="32" width="4" height="4" fill="#0d1012"/><rect x="4" y="32" width="24" height="4" fill="#f9d630"/><rect x="28" y="32" width="4" height="4" fill="#0d1012"/><rect x="0" y="36" width="32" height="4" fill="#0d1012"/></g><g class="open oa" style="opacity:0"><rect x="8" y="0" width="16" height="4" fill="#0d1012"/><rect x="4" y="4" width="8" height="4" fill="#0d1012"/><rect x="20" y="4" width="8" height="4" fill="#0d1012"/><rect x="4" y="8" width="4" height="4" fill="#0d1012"/><rect x="24" y="8" width="4" height="4" fill="#0d1012"/><rect x="4" y="12" width="4" height="4" fill="#0d1012"/><rect x="0" y="16" width="32" height="4" fill="#0d1012"/><rect x="0" y="20" width="4" height="4" fill="#0d1012"/><rect x="4" y="20" width="24" height="4" fill="#f9d630"/><rect x="28" y="20" width="4" height="4" fill="#0d1012"/><rect x="0" y="24" width="4" height="4" fill="#0d1012"/><rect x="4" y="24" width="12" height="4" fill="#f9d630"/><rect x="16" y="24" width="4" height="4" fill="#0d1012"/><rect x="20" y="24" width="8" height="4" fill="#f9d630"/><rect x="28" y="24" width="4" height="4" fill="#0d1012"/><rect x="0" y="28" width="4" height="4" fill="#0d1012"/><rect x="4" y="28" width="12" height="4" fill="#f9d630"/><rect x="16" y="28" width="4" height="4" fill="#0d1012"/><rect x="20" y="28" width="8" height="4" fill="#f9d630"/><rect x="28" y="28" width="4" height="4" fill="#0d1012"/><rect x="0" y="32" width="4" height="4" fill="#0d1012"/><rect x="4" y="32" width="24" height="4" fill="#f9d630"/><rect x="28" y="32" width="4" height="4" fill="#0d1012"/><rect x="0" y="36" width="32" height="4" fill="#0d1012"/></g><g class="pop pa" transform="translate(-6 -18)" style="opacity:0"><rect x="6" y="0" width="3" height="3" fill="#7d2600"/><rect x="0" y="3" width="3" height="3" fill="#7d2600"/><rect x="12" y="3" width="3" height="3" fill="#7d2600"/><rect x="6" y="6" width="3" height="3" fill="#7d2600"/><rect x="0" y="9" width="3" height="3" fill="#7d2600"/><rect x="12" y="9" width="3" height="3" fill="#7d2600"/></g></g><g transform="translate(544 78)"><g class="cb"><rect x="8" y="0" width="16" height="4" fill="#0d1012"/><rect x="4" y="4" width="8" height="4" fill="#0d1012"/><rect x="20" y="4" width="8" height="4" fill="#0d1012"/><rect x="4" y="8" width="4" height="4" fill="#0d1012"/><rect x="24" y="8" width="4" height="4" fill="#0d1012"/><rect x="4" y="12" width="4" height="4" fill="#0d1012"/><rect x="24" y="12" width="4" height="4" fill="#0d1012"/><rect x="0" y="16" width="32" height="4" fill="#0d1012"/><rect x="0" y="20" width="4" height="4" fill="#0d1012"/><rect x="4" y="20" width="24" height="4" fill="#f9d630"/><rect x="28" y="20" width="4" height="4" fill="#0d1012"/><rect x="0" y="24" width="4" height="4" fill="#0d1012"/><rect x="4" y="24" width="12" height="4" fill="#f9d630"/><rect x="16" y="24" width="4" height="4" fill="#0d1012"/><rect x="20" y="24" width="8" height="4" fill="#f9d630"/><rect x="28" y="24" width="4" height="4" fill="#0d1012"/><rect x="0" y="28" width="4" height="4" fill="#0d1012"/><rect x="4" y="28" width="12" height="4" fill="#f9d630"/><rect x="16" y="28" width="4" height="4" fill="#0d1012"/><rect x="20" y="28" width="8" height="4" fill="#f9d630"/><rect x="28" y="28" width="4" height="4" fill="#0d1012"/><rect x="0" y="32" width="4" height="4" fill="#0d1012"/><rect x="4" y="32" width="24" height="4" fill="#f9d630"/><rect x="28" y="32" width="4" height="4" fill="#0d1012"/><rect x="0" y="36" width="32" height="4" fill="#0d1012"/></g><g class="open ob" style="opacity:0"><rect x="8" y="0" width="16" height="4" fill="#0d1012"/><rect x="4" y="4" width="8" height="4" fill="#0d1012"/><rect x="20" y="4" width="8" height="4" fill="#0d1012"/><rect x="4" y="8" width="4" height="4" fill="#0d1012"/><rect x="24" y="8" width="4" height="4" fill="#0d1012"/><rect x="4" y="12" width="4" height="4" fill="#0d1012"/><rect x="0" y="16" width="32" height="4" fill="#0d1012"/><rect x="0" y="20" width="4" height="4" fill="#0d1012"/><rect x="4" y="20" width="24" height="4" fill="#f9d630"/><rect x="28" y="20" width="4" height="4" fill="#0d1012"/><rect x="0" y="24" width="4" height="4" fill="#0d1012"/><rect x="4" y="24" width="12" height="4" fill="#f9d630"/><rect x="16" y="24" width="4" height="4" fill="#0d1012"/><rect x="20" y="24" width="8" height="4" fill="#f9d630"/><rect x="28" y="24" width="4" height="4" fill="#0d1012"/><rect x="0" y="28" width="4" height="4" fill="#0d1012"/><rect x="4" y="28" width="12" height="4" fill="#f9d630"/><rect x="16" y="28" width="4" height="4" fill="#0d1012"/><rect x="20" y="28" width="8" height="4" fill="#f9d630"/><rect x="28" y="28" width="4" height="4" fill="#0d1012"/><rect x="0" y="32" width="4" height="4" fill="#0d1012"/><rect x="4" y="32" width="24" height="4" fill="#f9d630"/><rect x="28" y="32" width="4" height="4" fill="#0d1012"/><rect x="0" y="36" width="32" height="4" fill="#0d1012"/></g><g class="pop pb" transform="translate(-6 -18)" style="opacity:0"><rect x="6" y="0" width="3" height="3" fill="#7d2600"/><rect x="0" y="3" width="3" height="3" fill="#7d2600"/><rect x="12" y="3" width="3" height="3" fill="#7d2600"/><rect x="6" y="6" width="3" height="3" fill="#7d2600"/><rect x="0" y="9" width="3" height="3" fill="#7d2600"/><rect x="12" y="9" width="3" height="3" fill="#7d2600"/></g></g><g transform="translate(844 78)"><g class="cc"><rect x="8" y="0" width="16" height="4" fill="#0d1012"/><rect x="4" y="4" width="8" height="4" fill="#0d1012"/><rect x="20" y="4" width="8" height="4" fill="#0d1012"/><rect x="4" y="8" width="4" height="4" fill="#0d1012"/><rect x="24" y="8" width="4" height="4" fill="#0d1012"/><rect x="4" y="12" width="4" height="4" fill="#0d1012"/><rect x="24" y="12" width="4" height="4" fill="#0d1012"/><rect x="0" y="16" width="32" height="4" fill="#0d1012"/><rect x="0" y="20" width="4" height="4" fill="#0d1012"/><rect x="4" y="20" width="24" height="4" fill="#f9d630"/><rect x="28" y="20" width="4" height="4" fill="#0d1012"/><rect x="0" y="24" width="4" height="4" fill="#0d1012"/><rect x="4" y="24" width="12" height="4" fill="#f9d630"/><rect x="16" y="24" width="4" height="4" fill="#0d1012"/><rect x="20" y="24" width="8" height="4" fill="#f9d630"/><rect x="28" y="24" width="4" height="4" fill="#0d1012"/><rect x="0" y="28" width="4" height="4" fill="#0d1012"/><rect x="4" y="28" width="12" height="4" fill="#f9d630"/><rect x="16" y="28" width="4" height="4" fill="#0d1012"/><rect x="20" y="28" width="8" height="4" fill="#f9d630"/><rect x="28" y="28" width="4" height="4" fill="#0d1012"/><rect x="0" y="32" width="4" height="4" fill="#0d1012"/><rect x="4" y="32" width="24" height="4" fill="#f9d630"/><rect x="28" y="32" width="4" height="4" fill="#0d1012"/><rect x="0" y="36" width="32" height="4" fill="#0d1012"/></g><g class="open oc" style="opacity:0"><rect x="8" y="0" width="16" height="4" fill="#0d1012"/><rect x="4" y="4" width="8" height="4" fill="#0d1012"/><rect x="20" y="4" width="8" height="4" fill="#0d1012"/><rect x="4" y="8" width="4" height="4" fill="#0d1012"/><rect x="24" y="8" width="4" height="4" fill="#0d1012"/><rect x="4" y="12" width="4" height="4" fill="#0d1012"/><rect x="0" y="16" width="32" height="4" fill="#0d1012"/><rect x="0" y="20" width="4" height="4" fill="#0d1012"/><rect x="4" y="20" width="24" height="4" fill="#f9d630"/><rect x="28" y="20" width="4" height="4" fill="#0d1012"/><rect x="0" y="24" width="4" height="4" fill="#0d1012"/><rect x="4" y="24" width="12" height="4" fill="#f9d630"/><rect x="16" y="24" width="4" height="4" fill="#0d1012"/><rect x="20" y="24" width="8" height="4" fill="#f9d630"/><rect x="28" y="24" width="4" height="4" fill="#0d1012"/><rect x="0" y="28" width="4" height="4" fill="#0d1012"/><rect x="4" y="28" width="12" height="4" fill="#f9d630"/><rect x="16" y="28" width="4" height="4" fill="#0d1012"/><rect x="20" y="28" width="8" height="4" fill="#f9d630"/><rect x="28" y="28" width="4" height="4" fill="#0d1012"/><rect x="0" y="32" width="4" height="4" fill="#0d1012"/><rect x="4" y="32" width="24" height="4" fill="#f9d630"/><rect x="28" y="32" width="4" height="4" fill="#0d1012"/><rect x="0" y="36" width="32" height="4" fill="#0d1012"/></g><g class="pop pc" transform="translate(-6 -18)" style="opacity:0"><rect x="6" y="0" width="3" height="3" fill="#7d2600"/><rect x="0" y="3" width="3" height="3" fill="#7d2600"/><rect x="12" y="3" width="3" height="3" fill="#7d2600"/><rect x="6" y="6" width="3" height="3" fill="#7d2600"/><rect x="0" y="9" width="3" height="3" fill="#7d2600"/><rect x="12" y="9" width="3" height="3" fill="#7d2600"/></g></g><g transform="translate(0 58)"><g class="walk"><g class="fa"><rect x="16" y="0" width="16" height="4" fill="#0d1012"/><rect x="12" y="4" width="24" height="4" fill="#0d1012"/><rect x="8" y="8" width="32" height="4" fill="#0d1012"/><rect x="8" y="12" width="4" height="4" fill="#0d1012"/><rect x="12" y="12" width="24" height="4" fill="#f9d630"/><rect x="36" y="12" width="4" height="4" fill="#0d1012"/><rect x="8" y="16" width="4" height="4" fill="#0d1012"/><rect x="12" y="16" width="4" height="4" fill="#f9d630"/><rect x="16" y="16" width="4" height="4" fill="#0d1012"/><rect x="20" y="16" width="8" height="4" fill="#f9d630"/><rect x="28" y="16" width="4" height="4" fill="#0d1012"/><rect x="32" y="16" width="4" height="4" fill="#f9d630"/><rect x="36" y="16" width="4" height="4" fill="#0d1012"/><rect x="8" y="20" width="32" height="4" fill="#0d1012"/><rect x="4" y="24" width="40" height="4" fill="#0d1012"/><rect x="0" y="28" width="48" height="4" fill="#0d1012"/><rect x="0" y="32" width="8" height="4" fill="#0d1012"/><rect x="12" y="32" width="24" height="4" fill="#0d1012"/><rect x="40" y="32" width="8" height="4" fill="#0d1012"/><rect x="0" y="36" width="8" height="4" fill="#0d1012"/><rect x="12" y="36" width="24" height="4" fill="#0d1012"/><rect x="40" y="36" width="8" height="4" fill="#0d1012"/><rect x="12" y="40" width="24" height="4" fill="#0d1012"/><rect x="12" y="44" width="24" height="4" fill="#0d1012"/><rect x="12" y="48" width="8" height="4" fill="#0d1012"/><rect x="28" y="48" width="8" height="4" fill="#0d1012"/><rect x="12" y="52" width="8" height="4" fill="#0d1012"/><rect x="28" y="52" width="8" height="4" fill="#0d1012"/><rect x="8" y="56" width="12" height="4" fill="#0d1012"/><rect x="28" y="56" width="12" height="4" fill="#0d1012"/></g><g class="fb" transform="translate(0 -4)"><rect x="16" y="0" width="16" height="4" fill="#0d1012"/><rect x="12" y="4" width="24" height="4" fill="#0d1012"/><rect x="8" y="8" width="32" height="4" fill="#0d1012"/><rect x="8" y="12" width="4" height="4" fill="#0d1012"/><rect x="12" y="12" width="24" height="4" fill="#f9d630"/><rect x="36" y="12" width="4" height="4" fill="#0d1012"/><rect x="8" y="16" width="4" height="4" fill="#0d1012"/><rect x="12" y="16" width="4" height="4" fill="#f9d630"/><rect x="16" y="16" width="4" height="4" fill="#0d1012"/><rect x="20" y="16" width="8" height="4" fill="#f9d630"/><rect x="28" y="16" width="4" height="4" fill="#0d1012"/><rect x="32" y="16" width="4" height="4" fill="#f9d630"/><rect x="36" y="16" width="4" height="4" fill="#0d1012"/><rect x="8" y="20" width="32" height="4" fill="#0d1012"/><rect x="4" y="24" width="40" height="4" fill="#0d1012"/><rect x="0" y="28" width="48" height="4" fill="#0d1012"/><rect x="0" y="32" width="8" height="4" fill="#0d1012"/><rect x="12" y="32" width="24" height="4" fill="#0d1012"/><rect x="40" y="32" width="8" height="4" fill="#0d1012"/><rect x="0" y="36" width="8" height="4" fill="#0d1012"/><rect x="12" y="36" width="24" height="4" fill="#0d1012"/><rect x="40" y="36" width="8" height="4" fill="#0d1012"/><rect x="12" y="40" width="24" height="4" fill="#0d1012"/><rect x="12" y="44" width="24" height="4" fill="#0d1012"/><rect x="16" y="48" width="16" height="4" fill="#0d1012"/><rect x="16" y="52" width="16" height="4" fill="#0d1012"/><rect x="12" y="56" width="24" height="4" fill="#0d1012"/></g></g></g></svg>